<svg xmlns="http://www.w3.org/2000/svg" width="30.144" height="31.107" viewBox="0 0 30.144 31.107">
  <g id="Group_246" data-name="Group 246" transform="translate(0 0)">
    <path id="Path_526" data-name="Path 526" d="M406.616,99.175v.217q0,8.293,0,16.586,0,3,0,6a5.478,5.478,0,0,1-6.3,5.494,5.264,5.264,0,0,1-3.53-2.092,5.169,5.169,0,0,1-1.025-4.3,5.487,5.487,0,0,1,7.946-3.856c.047.024.1.045.158.074v-9.276l-16.422,3.426v.231q0,6.532,0,13.065a5.482,5.482,0,0,1-10.278,2.7,5.091,5.091,0,0,1-.613-3.452,5.486,5.486,0,0,1,8-4.017l.139.067V103.75Zm-19.173,9.478,16.423-3.427v-2.677l-16.423,3.426v2.678ZM379.228,124.8a2.736,2.736,0,1,0,2.726-2.732A2.726,2.726,0,0,0,379.228,124.8Zm21.895,0a2.736,2.736,0,1,0-2.722-2.736A2.736,2.736,0,0,0,401.123,124.8Z" transform="translate(-376.471 -99.175)" fill="#fff"/>
  </g>
</svg>
