<?xml version="1.0" encoding="utf-8"?>
<!-- Generator: Adobe Illustrator 25.0.1, SVG Export Plug-In . SVG Version: 6.00 Build 0)  -->
<svg version="1.1" id="Layer_1" xmlns="http://www.w3.org/2000/svg" xmlns:xlink="http://www.w3.org/1999/xlink" x="0px" y="0px"
	 width="65px" height="65px" viewBox="0 0 65 65" enable-background="new 0 0 65 65" xml:space="preserve">
<g>
	<path fill="#FFFFFF" d="M60.596,32.5h-1c-0.001,7.486-3.031,14.254-7.936,19.16c-4.907,4.905-11.674,7.936-19.16,7.936
		c-7.485-0.001-14.253-3.031-19.159-7.936C8.435,46.753,5.405,39.985,5.404,32.5c0.001-7.485,3.031-14.253,7.936-19.159
		C18.247,8.435,25.014,5.404,32.5,5.404c7.486,0.001,14.253,3.031,19.16,7.936c4.905,4.907,7.936,11.674,7.936,19.159H60.596h1
		C61.595,16.43,48.57,3.405,32.5,3.404C16.431,3.405,3.405,16.43,3.404,32.5C3.405,48.57,16.431,61.596,32.5,61.596
		C48.57,61.596,61.595,48.57,61.596,32.5H60.596z"/>
	<path fill="#FFFFFF" d="M52.367,32.5c0,10.973-8.895,19.867-19.867,19.867S12.633,43.472,12.633,32.5
		c0-10.972,8.895-19.866,19.867-19.866S52.367,21.528,52.367,32.5z"/>
	<rect x="25.164" y="25.164" fill="#C1272D" width="14.671" height="14.672"/>
</g>
</svg>
